<svg width="22" height="22" viewBox="0 0 22 22" fill="none" xmlns="http://www.w3.org/2000/svg">
<path d="M7.22668 21.5065H6.88604C5.89073 21.513 4.91564 21.2256 4.08302 20.6802C3.2504 20.1348 2.59732 19.3558 2.20564 18.4407C1.2275 16.0643 0.73413 13.5164 0.754513 10.9466C0.736198 8.37641 1.23189 5.82846 2.21246 3.45255C2.60368 2.53859 3.25571 1.76028 4.08699 1.21498C4.91827 0.669684 5.89189 0.381607 6.88604 0.386787H7.22668C7.85909 0.386787 8.46559 0.638009 8.91277 1.08519C9.35995 1.53236 9.61117 2.13887 9.61117 2.77127V6.17768C9.61117 6.81008 9.35995 7.41658 8.91277 7.86376C8.46559 8.31094 7.85909 8.56216 7.22668 8.56216H2.94824C2.74664 10.1454 2.74664 11.7479 2.94824 13.3311H7.22668C7.85909 13.3311 8.46559 13.5823 8.91277 14.0295C9.35995 14.4767 9.61117 15.0832 9.61117 15.7156V19.122C9.61117 19.7544 9.35995 20.3609 8.91277 20.8081C8.46559 21.2553 7.85909 21.5065 7.22668 21.5065ZM3.33657 15.375C3.53032 16.1505 3.78313 16.9101 4.09279 17.647C4.3288 18.1904 4.7195 18.6523 5.21621 18.9752C5.71291 19.298 6.29365 19.4676 6.88604 19.4627H7.22668C7.31703 19.4627 7.40367 19.4268 7.46755 19.3629C7.53144 19.299 7.56732 19.2124 7.56732 19.122V15.7156C7.56732 15.6253 7.53144 15.5386 7.46755 15.4747C7.40367 15.4109 7.31703 15.375 7.22668 15.375H3.33657ZM3.33657 6.51832H7.22668C7.31703 6.51832 7.40367 6.48243 7.46755 6.41855C7.53144 6.35466 7.56732 6.26802 7.56732 6.17768V2.77127C7.56732 2.68093 7.53144 2.59428 7.46755 2.5304C7.40367 2.46652 7.31703 2.43063 7.22668 2.43063H6.88604C6.2924 2.42393 5.70999 2.59266 5.21187 2.91565C4.71374 3.23865 4.32207 3.70153 4.08598 4.24624C3.77864 4.9834 3.5281 5.74297 3.33657 6.51832Z" fill="#BE1E2D"/>
<path d="M14.2065 15.2831L12.7622 13.8388L13.4844 13.1166C13.7692 12.8319 13.9951 12.4939 14.1492 12.1219C14.3033 11.7498 14.3827 11.3511 14.3827 10.9484C14.3827 10.5457 14.3033 10.147 14.1492 9.77497C13.9951 9.40295 13.7692 9.06494 13.4844 8.78024L12.7622 8.05809L14.2065 6.61377L14.9287 7.33593C15.8866 8.29412 16.4247 9.59354 16.4247 10.9484C16.4247 12.3033 15.8866 13.6027 14.9287 14.5609L14.2065 15.2831Z" fill="#BE1E2D"/>
<path d="M18.0591 19.122L16.6147 17.6913L17.3369 16.9691C18.1279 16.1783 18.7554 15.2394 19.1835 14.2061C19.6116 13.1727 19.832 12.0651 19.832 10.9466C19.832 9.82809 19.6116 8.72051 19.1835 7.68716C18.7554 6.6538 18.1279 5.7149 17.3369 4.92409L16.6147 4.20193L18.0591 2.77124L18.7812 3.4934C20.7615 5.47375 21.874 8.15964 21.874 10.9602C21.874 13.7608 20.7615 16.4467 18.7812 18.4271L18.0591 19.122Z" fill="#BE1E2D"/>
</svg>
