<svg width="65" height="68" viewBox="0 0 65 68" fill="none" xmlns="http://www.w3.org/2000/svg">
<path d="M45.4361 30.2907C51.4012 30.2907 56.2542 25.4377 56.2542 19.4726C56.2542 13.5075 51.4012 8.6545 45.4361 8.6545C44.9644 8.6545 44.4884 8.68695 44.0114 8.75078C41.5286 3.40555 36.2364 0 30.2907 0C23.8843 0 18.1809 4.06761 16.04 10.0187C15.4039 9.84557 14.744 9.73631 14.0636 9.73631C10.6483 9.73631 7.71873 11.9811 6.79162 15.1854C2.98147 15.577 0 18.8062 0 22.7181C0 26.8939 3.39689 30.2907 7.57269 30.2907H10.8181V62.7451C10.8181 65.1316 12.7589 67.0724 15.1454 67.0724H34.618C37.0045 67.0724 38.9452 65.1316 38.9452 62.7451V50.2643C39.6365 49.8002 40.2802 49.256 40.8406 48.6177L41.111 48.3105L41.1078 45.4361H36.7816C34.9923 45.4361 33.5362 43.98 33.5362 42.1907C33.5362 40.4014 34.9923 38.9452 36.7816 38.9452H41.1089V36.0687L40.8395 35.7626C40.2791 35.1254 39.6365 34.5812 38.9463 34.1171V30.2907H45.4361ZM7.57269 28.1271C4.59013 28.1271 2.16362 25.7006 2.16362 22.7181C2.16362 19.7355 4.59013 17.309 7.643 17.309L8.57444 17.3252L8.72914 16.4057C9.16728 13.7953 11.4099 11.8999 14.0636 11.8999C16.3527 11.8999 18.4027 13.3485 19.1654 15.5056L21.2057 14.7851C20.6172 13.1202 19.4705 11.7744 18.0327 10.8863C19.8285 5.71305 24.7508 2.16362 30.2907 2.16362C35.6392 2.16362 40.3732 5.38202 42.3508 10.3638L42.6894 11.2173L43.5873 11.0215C44.205 10.8863 44.8271 10.8181 45.4361 10.8181C50.208 10.8181 54.0906 14.7007 54.0906 19.4726C54.0906 24.2445 50.208 28.1271 45.4361 28.1271H38.9452V21.6362C38.9452 19.2498 37.0045 17.309 34.618 17.309H15.1454C12.7589 17.309 10.8181 19.2498 10.8181 21.6362V28.1271H7.57269ZM36.7816 25.9635H12.9817V21.6362C12.9817 20.443 13.9521 19.4726 15.1454 19.4726H34.618C35.8112 19.4726 36.7816 20.443 36.7816 21.6362V25.9635ZM34.618 64.9087H15.1454C13.9521 64.9087 12.9817 63.9384 12.9817 62.7451V58.4179H36.7816V62.7451C36.7816 63.9384 35.8112 64.9087 34.618 64.9087ZM36.7816 56.2542H12.9817V46.5179H24.8168C26.4546 49.8272 29.8007 51.927 33.5362 51.927C34.6548 51.927 35.7485 51.7258 36.7816 51.359V56.2542ZM36.7816 36.7816C33.7991 36.7816 31.3726 39.2081 31.3726 42.1907C31.3726 45.1732 33.7991 47.5997 36.7816 47.5997H38.8262C37.4166 48.9812 35.5191 49.7634 33.5362 49.7634C30.439 49.7634 27.6847 47.9059 26.5195 45.0304L26.2458 44.3543H12.9817V40.0271H26.2458L26.5195 39.3509C27.6847 36.4755 30.439 34.618 33.5362 34.618C35.5191 34.618 37.4166 35.4001 38.8262 36.7816H36.7816ZM33.5362 32.4544C29.8007 32.4544 26.4546 34.5542 24.8168 37.8634H12.9817V28.1271H36.7816V33.0234C35.7485 32.6556 34.6548 32.4544 33.5362 32.4544Z" fill="#2F2F3A"/>
<path d="M23.7993 21.6357H28.1266V23.7994H23.7993V21.6357Z" fill="#2F2F3A"/>
<path d="M21.6357 60.5815H28.1266V62.7452H21.6357V60.5815Z" fill="#2F2F3A"/>
<path d="M55.1723 34.6177C50.9965 34.6177 47.5996 38.0146 47.5996 42.1904C47.5996 46.3662 50.9965 49.763 55.1723 49.763C59.3481 49.763 62.745 46.3662 62.745 42.1904C62.745 38.0146 59.3481 34.6177 55.1723 34.6177ZM55.1723 47.5994C52.1897 47.5994 49.7632 45.1729 49.7632 42.1904C49.7632 39.2078 52.1897 36.7813 55.1723 36.7813C58.1549 36.7813 60.5814 39.2078 60.5814 42.1904C60.5814 45.1729 58.1549 47.5994 55.1723 47.5994Z" fill="#BE1E2D"/>
<path d="M55.1717 38.9448C53.3824 38.9448 51.9263 40.4009 51.9263 42.1903C51.9263 43.9796 53.3824 45.4357 55.1717 45.4357C56.961 45.4357 58.4171 43.9796 58.4171 42.1903C58.4171 40.4009 56.961 38.9448 55.1717 38.9448ZM55.1717 43.2721C54.5756 43.2721 54.0899 42.7863 54.0899 42.1903C54.0899 41.5942 54.5756 41.1084 55.1717 41.1084C55.7678 41.1084 56.2535 41.5942 56.2535 42.1903C56.2535 42.7863 55.7678 43.2721 55.1717 43.2721Z" fill="#BE1E2D"/>
<path d="M30.2906 6.49077C33.9536 6.49077 37.2326 8.8091 38.4529 12.2601L40.4932 11.5396C38.9678 7.22532 34.8677 4.32715 30.2906 4.32715C28.603 4.32715 26.9846 4.70578 25.4819 5.45223L26.4447 7.38976C27.6456 6.79368 28.9394 6.49077 30.2906 6.49077Z" fill="#2F2F3A"/>
<path d="M24.5209 8.6955L23.0788 7.08252C22.4016 7.68942 21.8012 8.37961 21.2949 9.13472L23.0929 10.3377C23.4975 9.73296 23.9778 9.18015 24.5209 8.6955Z" fill="#2F2F3A"/>
<path d="M51.9264 19.4723C51.9264 15.8926 49.0153 12.9814 45.4355 12.9814V15.1451C47.822 15.1451 49.7628 17.0858 49.7628 19.4723C49.7628 21.8588 47.822 23.7996 45.4355 23.7996V25.9632C49.0153 25.9632 51.9264 23.052 51.9264 19.4723Z" fill="#2F2F3A"/>
<path d="M6.49082 34.6177H4.3272V36.7813H2.16357V38.9449H4.3272V41.1085H6.49082V38.9449H8.65445V36.7813H6.49082V34.6177Z" fill="#2F2F3A"/>
<path d="M6.49082 43.2725H4.3272V45.4361H2.16357V47.5997H4.3272V49.7633H6.49082V47.5997H8.65445V45.4361H6.49082V43.2725Z" fill="#2F2F3A"/>
<path d="M6.49082 51.9268H4.3272V54.0904H2.16357V56.254H4.3272V58.4176H6.49082V56.254H8.65445V54.0904H6.49082V51.9268Z" fill="#2F2F3A"/>
<path d="M62.7447 6.49077V4.32715H60.5811V6.49077H58.4175V8.6544H60.5811V10.818H62.7447V8.6544H64.9084V6.49077H62.7447Z" fill="#2F2F3A"/>
<path d="M62.7447 12.9814H60.5811V15.1451H58.4175V17.3087H60.5811V19.4723H62.7447V17.3087H64.9084V15.1451H62.7447V12.9814Z" fill="#2F2F3A"/>
<path d="M62.7447 21.6357H60.5811V23.7994H58.4175V25.963H60.5811V28.1266H62.7447V25.963H64.9084V23.7994H62.7447V21.6357Z" fill="#2F2F3A"/>
</svg>
