<svg width="66" height="66" viewBox="0 0 66 66" fill="none" xmlns="http://www.w3.org/2000/svg">
<path d="M49.5195 10.1268V12.0268H51.9995V20.9268H53.9995V12.0268H56.4795V10.1268H49.5195ZM56.4795 8.82676V6.92676H49.5195V8.82676H56.4795Z" fill="#BE1E2D"/>
<path d="M51.8226 31.7991V37.688H42.4003C38.5029 37.688 35.3336 40.8573 35.3336 44.7547C35.3336 48.6521 38.5029 51.8214 42.4003 51.8214H51.8226V58.8882H2.35557V32.9769H49.467V30.6213H2.35557V29.4435C2.35557 28.7948 2.88465 28.2657 3.53336 28.2657H40.4841V25.9102H3.53336C1.58552 25.9102 0 27.4957 0 29.4435V62.4215C0 64.3693 1.58552 65.9549 3.53336 65.9549H50.6448C52.5926 65.9549 54.1781 64.3693 54.1781 62.4215V31.7991H51.8226ZM51.8226 62.4215C51.8226 63.0714 51.2935 63.5993 50.6448 63.5993H3.53336C2.88465 63.5993 2.35557 63.0714 2.35557 62.4215V61.2437H51.8226V62.4215ZM42.4003 49.4659C39.802 49.4659 37.6891 47.353 37.6891 44.7547C37.6891 42.1565 39.802 40.0436 42.4003 40.0436H51.8226V49.4659H42.4003Z" fill="#2F2F3A"/>
<path d="M4.71094 35.333H7.06651V37.6886H4.71094V35.333Z" fill="#2F2F3A"/>
<path d="M52.9996 25.9113C45.8564 25.9113 40.0439 20.0988 40.0439 12.9556C40.0439 5.81244 45.8564 0 52.9996 0C60.1428 0 65.9552 5.81244 65.9552 12.9556C65.9552 20.0988 60.1428 25.9113 52.9996 25.9113ZM52.9996 2.35557C47.1555 2.35557 42.3995 7.11157 42.3995 12.9556C42.3995 18.7997 47.1555 23.5557 52.9996 23.5557C58.8437 23.5557 63.5997 18.7997 63.5997 12.9556C63.5997 7.11157 58.8437 2.35557 52.9996 2.35557Z" fill="#BE1E2D"/>
<path d="M4.71094 40.0449H7.06651V42.4005H4.71094V40.0449Z" fill="#2F2F3A"/>
<path d="M4.71094 44.7568H7.06651V47.1124H4.71094V44.7568Z" fill="#2F2F3A"/>
<path d="M4.71094 49.4668H7.06651V51.8224H4.71094V49.4668Z" fill="#2F2F3A"/>
<path d="M4.71094 54.1797H7.06651V56.5353H4.71094V54.1797Z" fill="#2F2F3A"/>
<path d="M10.6006 4.71094H12.9562V8.24429H10.6006V4.71094Z" fill="#2F2F3A"/>
<path d="M5.94824 7.6137L7.6137 5.94824L10.1119 8.44701L8.44644 10.1125L5.94824 7.6137Z" fill="#2F2F3A"/>
<path d="M4.71094 10.6006H8.24429V12.9562H4.71094V10.6006Z" fill="#2F2F3A"/>
<path d="M5.94824 15.9421L8.44644 13.4434L10.1119 15.1094L7.6137 17.6076L5.94824 15.9421Z" fill="#2F2F3A"/>
<path d="M10.6006 15.3105H12.9562V18.8439H10.6006V15.3105Z" fill="#2F2F3A"/>
<path d="M13.4434 15.1088L15.1088 13.4434L17.6076 15.9416L15.9416 17.6076L13.4434 15.1088Z" fill="#2F2F3A"/>
<path d="M15.3105 10.6006H18.8439V12.9562H15.3105V10.6006Z" fill="#2F2F3A"/>
<path d="M13.4434 8.44644L15.9416 5.94824L17.607 7.6137L15.1088 10.1119L13.4434 8.44644Z" fill="#2F2F3A"/>
<path d="M25.9111 1.17773H28.2667V3.53331H25.9111V1.17773Z" fill="#2F2F3A"/>
<path d="M25.9111 5.8877H28.2667V8.24327H25.9111V5.8877Z" fill="#2F2F3A"/>
<path d="M28.2666 3.5332H30.6222V5.88877H28.2666V3.5332Z" fill="#2F2F3A"/>
<path d="M23.5557 3.5332H25.9112V5.88877H23.5557V3.5332Z" fill="#2F2F3A"/>
<path d="M42.3996 48.2894C40.4517 48.2894 38.8662 46.7038 38.8662 44.756C38.8662 42.8082 40.4517 41.2227 42.3996 41.2227C44.3474 41.2227 45.9329 42.8082 45.9329 44.756C45.9329 46.7038 44.3474 48.2894 42.3996 48.2894ZM42.3996 43.5782C41.7509 43.5782 41.2218 44.1062 41.2218 44.756C41.2218 45.4059 41.7509 45.9338 42.3996 45.9338C43.0483 45.9338 43.5774 45.4059 43.5774 44.756C43.5774 44.1062 43.0483 43.5782 42.3996 43.5782Z" fill="#2F2F3A"/>
</svg>
