<svg width="63" height="64" viewBox="0 0 63 64" fill="none" xmlns="http://www.w3.org/2000/svg">
<mask id="path-1-inside-1_142_841" fill="white">
<path fill-rule="evenodd" clip-rule="evenodd" d="M20.1379 52.2244C19.5445 52.2244 18.9754 51.9887 18.5558 51.5691C18.1361 51.1495 17.9004 50.5803 17.9004 49.9869V29.8491H6.71266C6.11938 29.8497 5.55056 30.0856 5.13106 30.5051C4.71155 30.9246 4.47564 31.4934 4.4751 32.0867V52.2246C4.47706 54.0044 5.18491 55.7106 6.44335 56.9691C7.7018 58.2275 9.40805 58.9354 11.1878 58.9373H20.0788C20.0985 58.9368 20.1182 58.9365 20.1379 58.9365H33.5633C34.1567 58.9365 34.7258 59.1723 35.1454 59.5919C35.5651 60.0115 35.8008 60.5806 35.8008 61.1741C35.8008 61.7675 35.5651 62.3366 35.1454 62.7563C34.7258 63.1759 34.1567 63.4116 33.5633 63.4116H20.1972C20.1775 63.4121 20.1577 63.4124 20.138 63.4124H11.1878C8.22165 63.4089 5.37803 62.2291 3.28068 60.1317C1.18332 58.0344 0.00349382 55.1908 0 52.2246V32.0867C0.00195445 30.307 0.709806 28.6007 1.96825 27.3423C3.22669 26.0838 4.93295 25.376 6.71266 25.374H17.9004V7.4734C17.9023 5.69369 18.6102 3.98744 19.8686 2.72899C21.1271 1.47055 22.8333 0.762697 24.613 0.760742H55.9388C57.7185 0.762697 59.4247 1.47055 60.6832 2.72899C61.9416 3.98744 62.6495 5.69369 62.6514 7.4734V32.0865C62.6514 32.6799 62.4157 33.249 61.9961 33.6687C61.5765 34.0883 61.0073 34.324 60.4139 34.324C59.8204 34.324 59.2513 34.0883 58.8317 33.6687C58.4121 33.249 58.1763 32.6799 58.1763 32.0865V7.4734C58.1758 6.88013 57.9399 6.31131 57.5204 5.8918C57.1009 5.47229 56.5321 5.23638 55.9388 5.23585H24.613C24.0198 5.23638 23.451 5.47229 23.0314 5.8918C22.6119 6.31131 22.376 6.88013 22.3755 7.4734V27.6006C22.3755 27.6043 22.3755 27.6079 22.3755 27.6116C22.3755 27.6152 22.3755 27.6189 22.3755 27.6225V49.9869C22.3755 50.5803 22.1398 51.1495 21.7201 51.5691C21.3005 51.9887 20.7314 52.2244 20.1379 52.2244Z"/>
</mask>
<path fill-rule="evenodd" clip-rule="evenodd" d="M20.1379 52.2244C19.5445 52.2244 18.9754 51.9887 18.5558 51.5691C18.1361 51.1495 17.9004 50.5803 17.9004 49.9869V29.8491H6.71266C6.11938 29.8497 5.55056 30.0856 5.13106 30.5051C4.71155 30.9246 4.47564 31.4934 4.4751 32.0867V52.2246C4.47706 54.0044 5.18491 55.7106 6.44335 56.9691C7.7018 58.2275 9.40805 58.9354 11.1878 58.9373H20.0788C20.0985 58.9368 20.1182 58.9365 20.1379 58.9365H33.5633C34.1567 58.9365 34.7258 59.1723 35.1454 59.5919C35.5651 60.0115 35.8008 60.5806 35.8008 61.1741C35.8008 61.7675 35.5651 62.3366 35.1454 62.7563C34.7258 63.1759 34.1567 63.4116 33.5633 63.4116H20.1972C20.1775 63.4121 20.1577 63.4124 20.138 63.4124H11.1878C8.22165 63.4089 5.37803 62.2291 3.28068 60.1317C1.18332 58.0344 0.00349382 55.1908 0 52.2246V32.0867C0.00195445 30.307 0.709806 28.6007 1.96825 27.3423C3.22669 26.0838 4.93295 25.376 6.71266 25.374H17.9004V7.4734C17.9023 5.69369 18.6102 3.98744 19.8686 2.72899C21.1271 1.47055 22.8333 0.762697 24.613 0.760742H55.9388C57.7185 0.762697 59.4247 1.47055 60.6832 2.72899C61.9416 3.98744 62.6495 5.69369 62.6514 7.4734V32.0865C62.6514 32.6799 62.4157 33.249 61.9961 33.6687C61.5765 34.0883 61.0073 34.324 60.4139 34.324C59.8204 34.324 59.2513 34.0883 58.8317 33.6687C58.4121 33.249 58.1763 32.6799 58.1763 32.0865V7.4734C58.1758 6.88013 57.9399 6.31131 57.5204 5.8918C57.1009 5.47229 56.5321 5.23638 55.9388 5.23585H24.613C24.0198 5.23638 23.451 5.47229 23.0314 5.8918C22.6119 6.31131 22.376 6.88013 22.3755 7.4734V27.6006C22.3755 27.6043 22.3755 27.6079 22.3755 27.6116C22.3755 27.6152 22.3755 27.6189 22.3755 27.6225V49.9869C22.3755 50.5803 22.1398 51.1495 21.7201 51.5691C21.3005 51.9887 20.7314 52.2244 20.1379 52.2244Z" fill="#2F2F3A"/>
<path d="M18.5558 51.5691L18.0608 52.0641L18.0608 52.0641L18.5558 51.5691ZM17.9004 29.8491H18.6004V29.1491H17.9004V29.8491ZM6.71266 29.8491V29.1491L6.71203 29.1491L6.71266 29.8491ZM5.13106 30.5051L5.62603 31.0001L5.62603 31.0001L5.13106 30.5051ZM4.4751 32.0867L3.7751 32.0861V32.0867H4.4751ZM4.4751 52.2246H3.7751L3.7751 52.2254L4.4751 52.2246ZM6.44335 56.9691L6.93833 56.4741H6.93833L6.44335 56.9691ZM11.1878 58.9373L11.187 59.6373H11.1878V58.9373ZM20.0788 58.9373V59.6373H20.088L20.0972 59.6371L20.0788 58.9373ZM35.1454 59.5919L35.6404 59.0969L35.6404 59.0969L35.1454 59.5919ZM20.1972 63.4116V62.7116H20.1879L20.1787 62.7119L20.1972 63.4116ZM11.1878 63.4124L11.1869 64.1124H11.1878V63.4124ZM3.28068 60.1317L2.7857 60.6267L3.28068 60.1317ZM0 52.2246H-0.7L-0.7 52.2255L0 52.2246ZM0 32.0867L-0.7 32.0859V32.0867H0ZM1.96825 27.3423L2.46322 27.8372H2.46323L1.96825 27.3423ZM6.71266 25.374V24.674L6.71189 24.674L6.71266 25.374ZM17.9004 25.374V26.074H18.6004V25.374H17.9004ZM17.9004 7.4734L17.2004 7.47263V7.4734H17.9004ZM19.8686 2.72899L20.3636 3.22397V3.22397L19.8686 2.72899ZM24.613 0.760742V0.0607418L24.6123 0.0607426L24.613 0.760742ZM55.9388 0.760742L55.9395 0.0607422H55.9388V0.760742ZM60.6832 2.72899L61.1782 2.23402V2.23402L60.6832 2.72899ZM62.6514 7.4734H63.3514V7.47263L62.6514 7.4734ZM58.8317 33.6687L58.3367 34.1636L58.3367 34.1636L58.8317 33.6687ZM58.1763 7.4734H58.8763V7.47277L58.1763 7.4734ZM57.5204 5.8918L57.0254 6.38677V6.38677L57.5204 5.8918ZM55.9388 5.23585L55.9394 4.53585H55.9388V5.23585ZM24.613 5.23585V4.53585L24.6124 4.53585L24.613 5.23585ZM23.0314 5.8918L23.5264 6.38678L23.5264 6.38677L23.0314 5.8918ZM22.3755 7.4734L21.6755 7.47277V7.4734H22.3755ZM22.3755 27.6006H21.6755L21.6755 27.6039L22.3755 27.6006ZM22.3755 27.6225L21.6755 27.6192V27.6225H22.3755ZM21.7201 51.5691L22.2151 52.0641L22.2151 52.0641L21.7201 51.5691ZM18.0608 52.0641C18.6117 52.615 19.3589 52.9244 20.1379 52.9244V51.5244C19.7302 51.5244 19.3391 51.3624 19.0507 51.0741L18.0608 52.0641ZM17.2004 49.9869C17.2004 50.766 17.5099 51.5132 18.0608 52.0641L19.0507 51.0741C18.7624 50.7858 18.6004 50.3947 18.6004 49.9869H17.2004ZM17.2004 29.8491V49.9869H18.6004V29.8491H17.2004ZM17.9004 29.1491H6.71266V30.5491H17.9004V29.1491ZM6.71203 29.1491C5.93332 29.1498 5.18671 29.4595 4.63608 30.0101L5.62603 31.0001C5.91442 30.7117 6.30545 30.5495 6.71328 30.5491L6.71203 29.1491ZM4.63608 30.0101C4.08545 30.5607 3.7758 31.3073 3.7751 32.0861L5.1751 32.0873C5.17547 31.6795 5.33765 31.2884 5.62603 31.0001L4.63608 30.0101ZM3.7751 32.0867V52.2246H5.1751V32.0867H3.7751ZM3.7751 52.2254C3.77726 54.1905 4.55885 56.0745 5.94838 57.464L6.93833 56.4741C5.81097 55.3467 5.17686 53.8182 5.1751 52.2239L3.7751 52.2254ZM5.94838 57.464C7.33791 58.8536 9.2219 59.6351 11.187 59.6373L11.1885 58.2373C9.59421 58.2356 8.06569 57.6014 6.93833 56.4741L5.94838 57.464ZM11.1878 59.6373H20.0788V58.2373H11.1878V59.6373ZM20.1379 58.2365C20.112 58.2365 20.0861 58.2369 20.0603 58.2375L20.0972 59.6371C20.1108 59.6367 20.1244 59.6365 20.1379 59.6365V58.2365ZM33.5633 58.2365H20.1379V59.6365H33.5633V58.2365ZM35.6404 59.0969C35.0895 58.546 34.3423 58.2365 33.5633 58.2365V59.6365C33.971 59.6365 34.3621 59.7985 34.6505 60.0869L35.6404 59.0969ZM36.5008 61.1741C36.5008 60.395 36.1913 59.6478 35.6404 59.0969L34.6505 60.0869C34.9388 60.3752 35.1008 60.7663 35.1008 61.1741H36.5008ZM35.6404 63.2512C36.1913 62.7003 36.5008 61.9532 36.5008 61.1741H35.1008C35.1008 61.5819 34.9388 61.9729 34.6505 62.2613L35.6404 63.2512ZM33.5633 64.1116C34.3423 64.1116 35.0895 63.8021 35.6404 63.2512L34.6505 62.2613C34.3621 62.5496 33.971 62.7116 33.5633 62.7116V64.1116ZM20.1972 64.1116H33.5633V62.7116H20.1972V64.1116ZM20.1787 62.7119C20.1651 62.7122 20.1515 62.7124 20.138 62.7124V64.1124C20.1639 64.1124 20.1898 64.1121 20.2156 64.1114L20.1787 62.7119ZM20.138 62.7124H11.1878V64.1124H20.138V62.7124ZM11.1886 62.7124C8.40785 62.7091 5.74193 61.603 3.77565 59.6368L2.7857 60.6267C5.01413 62.8551 8.03546 64.1087 11.1869 64.1124L11.1886 62.7124ZM3.77565 59.6368C1.80937 57.6705 0.703275 55.0046 0.7 52.2238L-0.7 52.2255C-0.696287 55.3769 0.557274 58.3983 2.7857 60.6267L3.77565 59.6368ZM0.7 52.2246V32.0867H-0.7V52.2246H0.7ZM0.7 32.0874C0.70175 30.4931 1.33587 28.9646 2.46322 27.8372L1.47328 26.8473C0.0837446 28.2368 -0.697842 30.1208 -0.7 32.0859L0.7 32.0874ZM2.46323 27.8372C3.59058 26.7099 5.1191 26.0758 6.71343 26.074L6.71189 24.674C4.7468 24.6762 2.86281 25.4578 1.47328 26.8473L2.46323 27.8372ZM6.71266 26.074H17.9004V24.674H6.71266V26.074ZM17.2004 7.4734V25.374H18.6004V7.4734H17.2004ZM19.3737 2.23402C17.9841 3.62355 17.2025 5.50754 17.2004 7.47263L18.6004 7.47417C18.6021 5.87985 19.2363 4.35132 20.3636 3.22397L19.3737 2.23402ZM24.6123 0.0607426C22.6472 0.0629007 20.7632 0.844487 19.3737 2.23402L20.3636 3.22397C21.491 2.09661 23.0195 1.46249 24.6138 1.46074L24.6123 0.0607426ZM55.9388 0.0607422H24.613V1.46074H55.9388V0.0607422ZM61.1782 2.23402C59.7886 0.844487 57.9046 0.0629007 55.9395 0.0607426L55.938 1.46074C57.5323 1.46249 59.0609 2.09661 60.1882 3.22397L61.1782 2.23402ZM63.3514 7.47263C63.3493 5.50754 62.5677 3.62355 61.1782 2.23402L60.1882 3.22397C61.3156 4.35132 61.9497 5.87985 61.9514 7.47417L63.3514 7.47263ZM63.3514 32.0865V7.4734H61.9514V32.0865H63.3514ZM62.491 34.1636C63.0419 33.6127 63.3514 32.8656 63.3514 32.0865H61.9514C61.9514 32.4943 61.7894 32.8853 61.5011 33.1737L62.491 34.1636ZM60.4139 35.024C61.193 35.024 61.9401 34.7145 62.491 34.1636L61.5011 33.1737C61.2128 33.462 60.8217 33.624 60.4139 33.624V35.024ZM58.3367 34.1636C58.8876 34.7145 59.6348 35.024 60.4139 35.024V33.624C60.0061 33.624 59.615 33.462 59.3267 33.1737L58.3367 34.1636ZM57.4763 32.0865C57.4763 32.8656 57.7858 33.6127 58.3367 34.1636L59.3267 33.1737C59.0383 32.8853 58.8763 32.4943 58.8763 32.0865H57.4763ZM57.4763 7.4734V32.0865H58.8763V7.4734H57.4763ZM57.0254 6.38677C57.3138 6.67516 57.476 7.06619 57.4763 7.47403L58.8763 7.47277C58.8756 6.69406 58.566 5.94745 58.0154 5.39683L57.0254 6.38677ZM55.9381 5.93585C56.346 5.93621 56.737 6.09839 57.0254 6.38677L58.0154 5.39683C57.4647 4.8462 56.7181 4.53655 55.9394 4.53585L55.9381 5.93585ZM24.613 5.93585H55.9388V4.53585H24.613V5.93585ZM23.5264 6.38677C23.8148 6.09839 24.2058 5.93621 24.6137 5.93585L24.6124 4.53585C23.8337 4.53655 23.0871 4.8462 22.5365 5.39683L23.5264 6.38677ZM23.0755 7.47403C23.0759 7.06619 23.238 6.67516 23.5264 6.38678L22.5365 5.39682C21.9858 5.94745 21.6762 6.69406 21.6755 7.47277L23.0755 7.47403ZM23.0755 27.6006V7.4734H21.6755V27.6006H23.0755ZM21.6755 27.6039C21.6755 27.6066 21.6755 27.6091 21.6755 27.6116H23.0755C23.0755 27.6067 23.0755 27.602 23.0755 27.5973L21.6755 27.6039ZM21.6755 27.6116C21.6755 27.614 21.6755 27.6165 21.6755 27.6192L23.0755 27.6258C23.0755 27.6212 23.0755 27.6164 23.0755 27.6116H21.6755ZM23.0755 49.9869V27.6225H21.6755V49.9869H23.0755ZM22.2151 52.0641C22.766 51.5132 23.0755 50.766 23.0755 49.9869H21.6755C21.6755 50.3947 21.5135 50.7858 21.2252 51.0741L22.2151 52.0641ZM20.1379 52.9244C20.917 52.9244 21.6642 52.615 22.2151 52.0641L21.2252 51.0741C20.9368 51.3624 20.5457 51.5244 20.1379 51.5244V52.9244Z" fill="white" mask="url(#path-1-inside-1_142_841)"/>
<path d="M40.2761 16.0733H31.3259C30.8253 16.0733 30.3452 15.8745 29.9912 15.5205C29.6372 15.1665 29.4384 14.6864 29.4384 14.1858C29.4384 13.6852 29.6372 13.2051 29.9912 12.8511C30.3452 12.4971 30.8253 12.2982 31.3259 12.2982H40.2761C40.7767 12.2982 41.2569 12.4971 41.6108 12.8511C41.9648 13.2051 42.1637 13.6852 42.1637 14.1858C42.1637 14.6864 41.9648 15.1665 41.6108 15.5205C41.2569 15.8745 40.7767 16.0733 40.2761 16.0733Z" fill="#2F2F3A" stroke="white" stroke-width="0.7"/>
<path d="M49.2263 25.0235H31.3259C30.8253 25.0235 30.3452 24.8247 29.9912 24.4707C29.6372 24.1167 29.4384 23.6366 29.4384 23.136C29.4384 22.6354 29.6372 22.1553 29.9912 21.8013C30.3452 21.4473 30.8253 21.2484 31.3259 21.2484H49.2263C49.727 21.2484 50.2071 21.4473 50.5611 21.8013C50.915 22.1553 51.1139 22.6354 51.1139 23.136C51.1139 23.6366 50.915 24.1167 50.5611 24.4707C50.2071 24.8247 49.727 25.0235 49.2263 25.0235Z" fill="#2F2F3A" stroke="white" stroke-width="0.7"/>
<path d="M46.9883 42.9239H46.9886H55.9388H55.9391C56.6251 42.9245 57.2828 43.1973 57.7679 43.6824C58.2529 44.1675 58.5257 44.8252 58.5263 45.5112V45.5115L58.5263 53.932C58.5263 53.9323 58.5263 53.9325 58.5263 53.9327V53.933H58.1763C58.1775 54.3487 58.0622 54.7565 57.8437 55.1102C57.6251 55.4639 57.312 55.7494 56.9396 55.9345L46.9883 42.9239ZM46.9883 42.9239C46.3023 42.9245 45.6446 43.1973 45.1595 43.6824C44.6744 44.1675 44.4016 44.8252 44.401 45.5112V45.5115V53.9326M46.9883 42.9239L57.0954 56.2479L52.6222 58.485L52.6219 58.4852C52.2624 58.6646 51.866 58.7579 51.4642 58.7579C51.0624 58.7579 50.6661 58.6646 50.3066 58.4852L50.3063 58.4851L45.832 56.2479C45.832 56.2479 45.8319 56.2479 45.8319 56.2479C45.4011 56.0338 45.0388 55.7035 44.7859 55.2942C44.5331 54.8851 44.3998 54.4135 44.401 53.9326M44.401 53.9326C44.401 53.9324 44.401 53.9322 44.401 53.932L44.751 53.933M44.401 53.9326V53.933H44.751M44.751 53.933V45.5115L45.9877 55.9345C45.6154 55.7494 45.3022 55.4639 45.0837 55.1102C44.8651 54.7565 44.7499 54.3487 44.751 53.933ZM51.4641 62.5287H51.4632C50.476 62.5301 49.5021 62.3018 48.6184 61.8619L44.1439 59.6246L44.1428 59.6241C43.0836 59.0989 42.1927 58.2875 41.5711 57.2818C40.9495 56.2761 40.6221 55.1164 40.6259 53.9341V53.933V45.5117C40.6278 43.8247 41.2988 42.2074 42.4917 41.0146C43.6845 39.8217 45.3018 39.1507 46.9888 39.1488H55.9386C57.6255 39.1507 59.2428 39.8217 60.4357 41.0146C61.6286 42.2075 62.2996 43.8249 62.3014 45.5119L62.3014 53.933L62.3014 53.9341C62.3054 55.1163 61.9781 56.2759 61.3567 57.2816C60.7353 58.2873 59.8446 59.0988 58.7856 59.6241L58.7846 59.6246L54.3102 61.8618C54.31 61.8619 54.3098 61.862 54.3097 61.8621C53.4256 62.3017 52.4514 62.5299 51.4641 62.5287Z" fill="#BE1E2D" stroke="white" stroke-width="0.7"/>
</svg>
