<svg width="71" height="71" viewBox="0 0 71 71" fill="none" xmlns="http://www.w3.org/2000/svg">
<path d="M20.3755 63.3896H22.6394V65.6536H20.3755V63.3896Z" fill="#2F2F3A"/>
<path d="M20.3755 58.8628H22.6394V61.1267H20.3755V58.8628Z" fill="#2F2F3A"/>
<path d="M67.2326 17.4449C66.7673 15.6779 66.0644 13.9844 65.1361 12.3963L66.5296 9.60934L60.572 3.65402L57.7862 5.04635C56.1981 4.11926 54.5046 3.4163 52.7376 2.95106L51.7551 0H43.332L42.3472 2.94993C40.5802 3.41517 38.8868 4.11813 37.2986 5.04521L34.5128 3.65289L28.5552 9.60821L29.9487 12.3951C29.5287 13.1139 29.1676 13.8599 28.8405 14.6217C28.2813 14.1055 27.8466 13.8078 27.7945 13.7739L26.9037 13.1807L26.0354 14.3387C24.2639 16.7012 21.4419 18.1116 18.4886 18.1116C12.0397 18.1116 6.79185 23.3594 6.79185 29.8083V38.4872C6.79185 40.9843 8.82262 43.0151 11.3198 43.0151H12.7087C13.6867 45.1454 15.1605 47.0042 16.9796 48.4712V50.1714L6.40472 54.4027C2.51412 55.9581 0 59.671 0 63.8627V70.1825H43.0151V63.8627C43.0151 59.6721 40.5009 55.9592 36.6104 54.4027L26.0354 50.1726V48.4712C27.8545 47.003 29.3272 45.1443 30.3064 43.0151H31.6953C33.1635 43.0151 34.4562 42.3019 35.2837 41.2164L37.2941 40.2304C38.8834 41.1586 40.5779 41.8627 42.3472 42.3291L43.3309 45.279H51.7539L52.7376 42.3291C54.5046 41.8639 56.1981 41.1609 57.7862 40.2338L60.572 41.6261L66.5296 35.6697L65.1361 32.8839C66.0632 31.2957 66.7662 29.6023 67.2326 27.8353L70.1825 26.8516V18.4286L67.2326 17.4449ZM18.4886 20.3756C21.8834 20.3756 25.1367 18.8734 27.3429 16.3208C28.1998 17.1211 29.4314 18.5836 29.4314 20.3756C29.4314 22.8795 25.3381 23.7715 21.5075 23.7715V26.0354C26.2698 26.0354 29.531 24.9159 30.9267 22.8942C32.8409 24.668 33.9593 27.1618 33.9593 29.8083V34.5886C33.2903 34.1992 32.5239 33.9593 31.6953 33.9593C31.6953 32.087 30.1717 30.5633 28.2994 30.5633H25.4378C22.3011 30.5633 19.1598 29.8219 16.3548 28.4182L15.7662 28.1251L12.8321 30.0811C11.8846 30.7128 11.3198 31.7689 11.3198 32.9065V33.9593C10.4911 33.9593 9.7248 34.1992 9.0558 34.5886V29.8083C9.0558 24.6069 13.2871 20.3756 18.4886 20.3756ZM33.9593 22.6395C33.9593 15.1492 40.0527 9.0558 47.543 9.0558C55.0333 9.0558 61.1267 15.1492 61.1267 22.6395C61.1267 30.1298 55.0333 36.2232 47.543 36.2232C42.9539 36.2232 38.7509 33.9423 36.2232 30.123V29.8083C36.2232 27.2965 35.4059 24.9001 33.9661 22.9236C33.9638 22.8297 33.9593 22.7346 33.9593 22.6395ZM29.4144 38.4758L29.4076 38.4872H24.9035V36.2232H29.4314V38.4758H29.4144ZM22.9542 35.0912H20.0609C19.6681 34.4177 18.9459 33.9593 18.1116 33.9593H13.5837V32.9065C13.5837 32.5273 13.7716 32.1753 14.0874 31.9647L15.9382 30.7309C18.9017 32.104 22.172 32.8273 25.4378 32.8273H28.2994C28.9242 32.8273 29.4314 33.3355 29.4314 33.9593H24.9035C24.0692 33.9593 23.347 34.4177 22.9542 35.0912ZM13.612 38.4872L13.5837 38.4442V36.7394V36.2232H18.1116V38.4872H13.612ZM11.3198 40.7511C10.0712 40.7511 9.0558 39.7357 9.0558 38.4872C9.0558 37.2386 10.0712 36.2232 11.3198 36.2232V36.7394V38.4872C11.3198 38.8686 11.4228 39.2218 11.5903 39.5376C11.6684 39.9508 11.7884 40.3493 11.8993 40.7511H11.3198ZM17.8297 56.8105L17.2173 52.5169L17.7267 52.3131L19.9228 55.2404L17.8297 56.8105ZM40.7511 63.8627V67.9185H36.2232V61.1267H33.9593V67.9185H9.0558V61.1267H6.79185V67.9185H2.26395V63.8627C2.26395 60.6037 4.22001 57.7149 7.24464 56.5048L15.053 53.3817L16.1295 60.9161L21.5075 56.8818L26.8855 60.915L27.9621 53.3806L35.7704 56.5037C38.7951 57.7149 40.7511 60.6026 40.7511 63.8627ZM25.2883 52.312L25.7977 52.5157L25.1853 56.8093L23.0923 55.2404L25.2883 52.312ZM23.7715 50.562L21.5075 53.5798L19.2436 50.562V50.0107C19.8424 50.3356 20.4627 50.6253 21.1091 50.8676L21.5075 51.0159L21.906 50.8676C22.5523 50.6253 23.1738 50.3344 23.7715 50.0107V50.562ZM21.5075 48.59C18.0527 47.1604 15.4118 44.2648 14.2482 40.7511H18.1116C19.3602 40.7511 20.3756 39.7357 20.3756 38.4872V37.3552H22.6395V38.4872C22.6395 39.7357 23.6549 40.7511 24.9035 40.7511H28.7669C27.6032 44.2648 24.9623 47.1604 21.5075 48.59ZM31.6953 40.7511H31.1157C31.2267 40.3493 31.3478 39.9508 31.4248 39.5376C31.5923 39.2218 31.6953 38.8686 31.6953 38.4872V36.2232C32.9439 36.2232 33.9593 37.2386 33.9593 38.4872C33.9593 39.7357 32.9439 40.7511 31.6953 40.7511ZM67.9185 25.2193L65.3218 26.0852L65.1792 26.7044C64.7309 28.6571 63.9589 30.5158 62.8858 32.2296L62.5484 32.7684L63.7755 35.2226L60.126 38.8709L57.673 37.645L57.1331 37.9823C55.4193 39.0566 53.5606 39.8274 51.6079 40.2757L50.9876 40.4172L50.1227 43.0151H44.9621L44.0961 40.4183L43.4758 40.2768C41.5231 39.8286 39.6644 39.0566 37.9506 37.9834L37.4163 37.6495L36.2232 38.2336V33.7272C39.172 36.7485 43.2109 38.4872 47.543 38.4872C56.2818 38.4872 63.3906 31.3784 63.3906 22.6395C63.3906 13.9007 56.2818 6.79185 47.543 6.79185C39.4641 6.79185 32.7899 12.8728 31.8266 20.6959C31.7791 20.6574 31.7293 20.6201 31.6817 20.5827C31.6851 20.5125 31.6953 20.4469 31.6953 20.3756C31.6953 18.8904 31.1678 17.6045 30.5011 16.5733C30.938 15.3473 31.504 14.1621 32.2002 13.0494L32.5375 12.5106L31.3104 10.0565L34.9599 6.40811L37.4129 7.63404L37.9529 7.29671C39.6667 6.22247 41.5254 5.45159 43.4781 5.00333L44.0984 4.86184L44.9632 2.26395H50.1239L50.9898 4.8607L51.6102 5.0022C53.5628 5.45046 55.4215 6.22247 57.1353 7.29558L57.6753 7.63291L60.1283 6.40698L63.7778 10.0553L62.5507 12.5095L62.888 13.0483C63.9611 14.7621 64.7332 16.6208 65.1814 18.5735L65.324 19.1926L67.9185 20.0597V25.2193Z" fill="#2F2F3A"/>
<path d="M45.2793 47.543H65.6549V49.8069H45.2793V47.543Z" fill="#BE1E2D"/>
<path d="M45.2793 52.0708H65.6549V54.3348H45.2793V52.0708Z" fill="#BE1E2D"/>
<path d="M45.2793 56.5986H56.5991V58.8626H45.2793V56.5986Z" fill="#BE1E2D"/>
<path d="M63.3911 56.5986H65.6551V58.8626H63.3911V56.5986Z" fill="#BE1E2D"/>
<path d="M58.8633 56.5986H61.1272V58.8626H58.8633V56.5986Z" fill="#BE1E2D"/>
<path d="M47.6682 28.7385C47.1551 28.7392 46.6489 28.6206 46.1895 28.3919L43.9848 27.2895C43.4341 27.0165 42.9709 26.5946 42.6477 26.0717C42.3245 25.5488 42.1543 24.9459 42.1563 24.3312V20.1821C42.1572 19.3053 42.506 18.4647 43.126 17.8447C43.746 17.2247 44.5866 16.876 45.4634 16.875H49.8729C50.7497 16.876 51.5904 17.2247 52.2104 17.8447C52.8304 18.4647 53.1791 19.3053 53.1801 20.1821V24.3312C53.1821 24.9458 53.012 25.5487 52.6889 26.0716C52.3658 26.5945 51.9027 27.0164 51.3521 27.2895L49.1473 28.3919C48.6878 28.6205 48.1814 28.7391 47.6682 28.7385ZM45.4634 19.0798C45.1711 19.08 44.8909 19.1963 44.6842 19.4029C44.4775 19.6096 44.3613 19.8899 44.361 20.1821V24.3312C44.3605 24.536 44.4172 24.7369 44.5249 24.9112C44.6326 25.0855 44.7869 25.2261 44.9703 25.3173L47.1751 26.4196C47.3283 26.4961 47.4972 26.5359 47.6684 26.5359C47.8397 26.5359 48.0086 26.4961 48.1618 26.4196L50.366 25.3173C50.5495 25.2261 50.7038 25.0855 50.8114 24.9112C50.9191 24.7369 50.9759 24.536 50.9753 24.3312V20.1821C50.9751 19.8899 50.8588 19.6096 50.6521 19.4029C50.4455 19.1963 50.1652 19.08 49.8729 19.0798H45.4634Z" fill="#BE1E2D"/>
</svg>
