<svg width="18" height="23" viewBox="0 0 18 23" fill="none" xmlns="http://www.w3.org/2000/svg">
<g filter="url(#filter0_d_142_1016)">
<path d="M9.75691 10.6798V10.1962C9.75691 9.66085 10.0332 9.41908 10.3786 9.09095L11.0003 8.52106C12.0365 7.57123 12.6755 6.53505 12.6755 5.18802C12.6755 2.82208 10.8622 1.85498 8.78981 1.85498C6.75199 1.85498 5.05957 2.82208 5.05957 5.04986H7.73636C7.73636 4.49723 8.23718 4.22092 8.78981 4.22092C9.42879 4.22092 9.80872 4.61812 9.80872 5.18802C9.80872 5.94788 9.44606 6.32781 8.84162 6.89771L8.08176 7.62303C7.44278 8.24474 7.33916 8.72829 7.33916 9.55723V10.6798H9.75691ZM9.89507 13.9437H7.201V11.2497H9.89507V13.9437Z" fill="white"/>
<path d="M10.3951 10.7497H10.2569V10.6798V10.1962C10.2569 10.0278 10.2965 9.92994 10.3543 9.84322C10.4261 9.73541 10.5281 9.63858 10.707 9.46868L10.7198 9.45653L11.3382 8.88963C12.4355 7.88378 13.1755 6.7237 13.1755 5.18802C13.1755 3.86051 12.6581 2.87434 11.8109 2.23514C10.9843 1.61139 9.8942 1.35498 8.78981 1.35498C7.70071 1.35498 6.64834 1.61229 5.85608 2.22036C5.04487 2.84298 4.55957 3.79372 4.55957 5.04986V5.54986H5.05957H7.73636H8.23636V5.04986C8.23636 4.94725 8.27326 4.88709 8.34561 4.83563C8.43448 4.77243 8.58856 4.72092 8.78981 4.72092C9.00439 4.72092 9.12511 4.78564 9.18977 4.8487C9.25394 4.91128 9.30872 5.01662 9.30872 5.18802C9.30872 5.47558 9.24373 5.66695 9.13 5.84566C9.00236 6.04624 8.80681 6.24333 8.49861 6.53392L8.49861 6.53391L8.49638 6.53603L7.73652 7.26136L7.7365 7.26134L7.73308 7.26467C7.37464 7.61343 7.13693 7.95292 6.99891 8.34725C6.86441 8.73155 6.83916 9.12887 6.83916 9.55723V10.6798V10.7497H6.701V11.2497V13.9437V14.4437H7.201H9.89507H10.3951V13.9437V11.2497V10.7497Z" stroke="black"/>
</g>
<defs>
<filter id="filter0_d_142_1016" x="0.0595703" y="0.85498" width="17.6157" height="22.0889" filterUnits="userSpaceOnUse" color-interpolation-filters="sRGB">
<feFlood flood-opacity="0" result="BackgroundImageFix"/>
<feColorMatrix in="SourceAlpha" type="matrix" values="0 0 0 0 0 0 0 0 0 0 0 0 0 0 0 0 0 0 127 0" result="hardAlpha"/>
<feOffset dy="4"/>
<feGaussianBlur stdDeviation="2"/>
<feComposite in2="hardAlpha" operator="out"/>
<feColorMatrix type="matrix" values="0 0 0 0 0 0 0 0 0 0 0 0 0 0 0 0 0 0 0.25 0"/>
<feBlend mode="normal" in2="BackgroundImageFix" result="effect1_dropShadow_142_1016"/>
<feBlend mode="normal" in="SourceGraphic" in2="effect1_dropShadow_142_1016" result="shape"/>
</filter>
</defs>
</svg>
