<svg width="151" height="42" viewBox="0 0 151 42" fill="none" xmlns="http://www.w3.org/2000/svg">
<path d="M74.9988 20.0014C74.9988 25.0008 71.3011 28.0808 65.3316 28.0808H60.2037V34.6348H55.9878V11.9219H65.3316C71.3011 11.9219 74.9988 14.9729 74.9988 20.0014ZM70.7497 20.0014C70.7497 17.1451 68.8345 15.4911 65.1368 15.4911H60.2037V24.5116H65.1368C68.8345 24.5116 70.7622 22.8576 70.7622 20.0014H70.7497Z" fill="white"/>
<path d="M83.7579 17.3772H79.542V34.6347H83.7579V17.3772Z" fill="white"/>
<path d="M104.526 34.6348L98.3615 26.004L92.2594 34.6348H87.459L95.895 23.0524L87.9108 11.9219H92.6823L98.4859 20.0014L104.227 11.9219H108.787L100.857 22.8907L109.393 34.6348H104.526Z" fill="white"/>
<path d="M129.316 31.0987V34.6348H112.278V11.9219H128.86V15.4579H116.498V21.3652H127.463V24.8225H116.498V31.0987H129.316Z" fill="white"/>
<path d="M134.344 11.9219H138.56V31.0656H150.436V34.6348H134.344V11.9219Z" fill="white"/>
<path d="M83.7579 11.9219H79.542V16.0466H83.7579V11.9219Z" fill="#BE1E2D"/>
<path d="M10.7646 17.5935H6.94251L0.289062 29.4039L7.09589 41.148L11.0092 41.1438L4.13604 29.3666L10.7646 17.5935Z" fill="white"/>
<path d="M36.8681 12.4695L29.9825 0.80417L16.4103 0.779297L14.5034 4.16199L16.9036 4.15784H28.0922L34.9985 15.8687L36.8681 12.4695Z" fill="white"/>
<path d="M44.8314 25.9712L37.8256 37.8023H27.6526H24.2119L26.1893 41.1394L39.7325 41.1477L46.7798 29.2751L44.8314 25.9712Z" fill="white"/>
<path d="M18.5292 12.3864C18.483 12.1125 18.4595 11.8352 18.4588 11.5573C18.4591 10.6913 18.6681 9.83815 19.0681 9.07007H11.7473L9.86523 12.3864H18.5292Z" fill="#BE1E2D"/>
<path d="M28.5201 14.397C27.9177 15.3856 27.016 16.1567 25.9458 16.5982L30.3856 24.1263L32.2552 20.7271L28.5201 14.397Z" fill="#BE1E2D"/>
<path d="M23.8845 7.68091C23.1149 7.68091 22.3626 7.90928 21.7229 8.3371C21.0832 8.76492 20.5848 9.37295 20.2909 10.0842C19.997 10.7954 19.9207 11.5779 20.0717 12.3325C20.2228 13.0871 20.5943 13.78 21.1394 14.3233C21.6845 14.8666 22.3785 15.2359 23.1336 15.3846C23.8887 15.5332 24.6709 15.4544 25.3812 15.1582C26.0915 14.862 26.6979 14.3617 27.1237 13.7206C27.5494 13.0795 27.7754 12.3265 27.7729 11.5569C27.76 10.5308 27.3458 9.55057 26.619 8.82611C25.8922 8.10166 24.9106 7.69058 23.8845 7.68091V7.68091ZM23.8845 13.07C23.5872 13.07 23.2966 12.9819 23.0494 12.817C22.8021 12.652 22.6092 12.4174 22.4951 12.143C22.3809 11.8685 22.3507 11.5663 22.408 11.2747C22.4654 10.983 22.6079 10.7148 22.8176 10.5041C23.0272 10.2933 23.2945 10.1493 23.5859 10.0903C23.8772 10.0313 24.1795 10.06 24.4546 10.1726C24.7298 10.2852 24.9653 10.4768 25.1317 10.7232C25.298 10.9695 25.3877 11.2596 25.3893 11.5569C25.3882 11.9564 25.2296 12.3394 24.9479 12.6227C24.6661 12.906 24.284 13.0667 23.8845 13.07V13.07Z" fill="#BE1E2D"/>
<path d="M38.5065 27.0361L42.0011 21.1662L40.0196 17.8125L35.9404 24.7437C37.0021 25.2396 37.8945 26.0368 38.5065 27.0361V27.0361Z" fill="#BE1E2D"/>
<path d="M27.4335 30.1581C27.4346 29.9337 27.4485 29.7095 27.4749 29.4866H19.5322L21.5138 32.8237H28.0636C27.6489 31.9963 27.4331 31.0836 27.4335 30.1581V30.1581Z" fill="#BE1E2D"/>
<path d="M33.4153 26.2695C32.6462 26.2695 31.8944 26.4976 31.255 26.9249C30.6155 27.3521 30.1172 27.9594 29.8228 28.6699C29.5285 29.3804 29.4515 30.1623 29.6016 30.9166C29.7516 31.6708 30.1219 32.3637 30.6658 32.9075C31.2096 33.4513 31.9024 33.8216 32.6567 33.9717C33.411 34.1217 34.1928 34.0447 34.9033 33.7504C35.6138 33.4561 36.2211 32.9577 36.6484 32.3183C37.0757 31.6788 37.3037 30.927 37.3037 30.158C37.294 29.1297 36.8812 28.1463 36.1541 27.4192C35.427 26.6921 34.4436 26.2793 33.4153 26.2695V26.2695ZM33.4153 31.6586C33.1173 31.6594 32.8258 31.5718 32.5777 31.4067C32.3296 31.2417 32.1361 31.0067 32.0217 30.7316C31.9073 30.4565 31.8771 30.1536 31.9351 29.8613C31.993 29.569 32.1364 29.3005 32.3471 29.0898C32.5578 28.8791 32.8263 28.7357 33.1186 28.6777C33.4109 28.6198 33.7138 28.65 33.9889 28.7644C34.2641 28.8788 34.499 29.0723 34.6641 29.3204C34.8291 29.5685 34.9168 29.86 34.9159 30.158C34.9127 30.555 34.7535 30.9348 34.4728 31.2155C34.1921 31.4962 33.8123 31.6554 33.4153 31.6586V31.6586Z" fill="#BE1E2D"/>
<path d="M16.109 25.0344L20.2544 17.6472H16.424L12.8838 23.9607C14.0465 23.9613 15.1779 24.338 16.109 25.0344V25.0344Z" fill="#BE1E2D"/>
<path d="M16.2042 33.686C15.2811 34.4061 14.1495 34.8075 12.979 34.8302L16.6394 41.1478H20.5652L16.2042 33.686Z" fill="#BE1E2D"/>
<path d="M12.8747 25.5073C12.1052 25.5073 11.3529 25.7357 10.7132 26.1635C10.0734 26.5913 9.57506 27.1994 9.28113 27.9106C8.98719 28.6218 8.91091 29.4043 9.06196 30.1589C9.21301 30.9136 9.58458 31.6064 10.1296 32.1497C10.6747 32.693 11.3687 33.0624 12.1238 33.211C12.8789 33.3596 13.6611 33.2808 14.3714 32.9846C15.0817 32.6884 15.6881 32.1881 16.1139 31.547C16.5397 30.9059 16.7656 30.1529 16.7632 29.3833C16.7502 28.3572 16.336 27.377 15.6092 26.6525C14.8824 25.9281 13.9009 25.517 12.8747 25.5073ZM12.8747 30.8964C12.5777 30.8956 12.2875 30.8068 12.0407 30.6414C11.794 30.4759 11.6018 30.2411 11.4883 29.9665C11.3748 29.692 11.3451 29.3899 11.4029 29.0985C11.4608 28.8071 11.6036 28.5394 11.8134 28.329C12.0232 28.1187 12.2905 27.9751 12.5818 27.9164C12.873 27.8578 13.1751 27.8866 13.45 27.9994C13.7248 28.1121 13.9602 28.3037 14.1264 28.55C14.2925 28.7963 14.382 29.0862 14.3837 29.3833C14.3837 29.7843 14.225 30.1689 13.9422 30.4532C13.6595 30.7375 13.2757 30.8984 12.8747 30.9006V30.8964Z" fill="#BE1E2D"/>
</svg>
