<svg width="15" height="14" viewBox="0 0 15 14" fill="none" xmlns="http://www.w3.org/2000/svg">
<path d="M10.3958 13.6068H4.69871C3.58548 13.6056 2.5182 13.1861 1.73106 12.4403C0.943909 11.6944 0.501178 10.6832 0.5 9.62853L0.5 4.23093C0.501256 3.17627 0.944022 2.16514 1.73116 1.41937C2.5183 0.673612 3.58553 0.25412 4.69871 0.25293L10.3958 0.25293C11.509 0.254046 12.5763 0.673505 13.3635 1.41928C14.1507 2.16505 14.5935 3.17622 14.5948 4.23093V9.62853C14.5936 10.6833 14.1508 11.6945 13.3636 12.4404C12.5764 13.1862 11.5091 13.6057 10.3958 13.6068V13.6068ZM4.69871 1.59607C3.96139 1.59689 3.25453 1.87476 2.73317 2.36871C2.21181 2.86267 1.91853 3.53238 1.91766 4.23093V9.62853C1.91853 10.3271 2.21182 10.9967 2.73319 11.4907C3.25455 11.9846 3.96142 12.2624 4.69871 12.2631H10.3958C11.133 12.2624 11.8399 11.9846 12.3612 11.4906C12.8825 10.9967 13.1757 10.327 13.1765 9.62853V4.23093C13.1757 3.5324 12.8825 2.86269 12.3612 2.36873C11.8399 1.87477 11.1331 1.59689 10.3958 1.59607H4.69871ZM7.5465 10.3832C6.82559 10.3829 6.12094 10.1802 5.52164 9.80055C4.92235 9.42092 4.45532 8.88146 4.17962 8.25037C3.90391 7.61927 3.83191 6.9249 3.97272 6.25504C4.11353 5.58518 4.46082 4.96992 4.97068 4.48706C5.48055 4.00419 6.13008 3.67541 6.83716 3.54227C7.54424 3.40914 8.27712 3.47764 8.94311 3.7391C9.6091 4.00057 10.1783 4.44327 10.5788 5.01122C10.9792 5.57916 11.1929 6.24686 11.1929 6.92987C11.1919 7.84559 10.8075 8.72354 10.1241 9.37102C9.4406 10.0185 8.51391 10.3826 7.54739 10.3834L7.5465 10.3832ZM7.5465 4.81833C7.10594 4.81833 6.67527 4.9421 6.30896 5.174C5.94265 5.4059 5.65715 5.7355 5.48855 6.12113C5.31996 6.50675 5.27584 6.93109 5.36179 7.34047C5.44774 7.74985 5.65989 8.12589 5.97141 8.42104C6.28294 8.71618 6.67984 8.91718 7.11193 8.99861C7.54403 9.08004 7.9919 9.03825 8.39893 8.87852C8.80595 8.71878 9.15384 8.44829 9.3986 8.10123C9.64336 7.75417 9.774 7.34615 9.774 6.92875C9.77306 6.36955 9.53816 5.83352 9.12078 5.43814C8.70341 5.04275 8.1376 4.82027 7.54739 4.81945L7.5465 4.81833ZM11.1988 4.32846C11.026 4.3284 10.8571 4.2798 10.7135 4.18881C10.5698 4.09781 10.4579 3.96851 10.3918 3.81725C10.3258 3.66598 10.3085 3.49956 10.3423 3.33901C10.3761 3.17846 10.4593 3.03101 10.5816 2.91529C10.7038 2.79958 10.8595 2.7208 11.0289 2.68891C11.1984 2.65703 11.3741 2.67348 11.5337 2.73618C11.6933 2.79887 11.8297 2.90501 11.9256 3.04115C12.0216 3.1773 12.0728 3.33734 12.0727 3.50104C12.0727 3.72054 11.9808 3.93107 11.8171 4.08641C11.6534 4.24175 11.4314 4.32921 11.1997 4.32958L11.1988 4.32846Z" fill="white"/>
</svg>
